<svg xmlns="http://www.w3.org/2000/svg" xmlns:xlink="http://www.w3.org/1999/xlink" viewBox="0 0 191.62 185.04"><defs><linearGradient id="linear-gradient" x1="0.68" y1="127.47" x2="50.53" y2="127.47" gradientUnits="userSpaceOnUse"><stop offset="0.33" stop-color="#ea4125"/><stop offset="1" stop-color="#fff" stop-opacity="0"/></linearGradient><linearGradient id="linear-gradient-2" x1="41.66" y1="75.74" x2="139.01" y2="75.74" xlink:href="#linear-gradient"/></defs><title>Asset 1</title><g id="Layer_2" data-name="Layer 2"><g id="图层_1" data-name="图层 1"><path d="M101.95,35.81,96.13,25.13c-3.78-2.28-8-4.68-12.72-7.38A231.71,231.71,0,0,0,62.23,7C58.87,5.64,56.29,5,54.37,5.22,52,5.52,51.49,7,52.63,9.6c.9,2,3.9,6.24,9,12.54,5.4,6.72,8.64,11,9.72,13a154.92,154.92,0,0,0,8.4,13.26Z" fill="#edbf75"/><path d="M137.22,14.64c-2.28-2.28-4.2-3.3-5.7-3.12a2.12,2.12,0,0,0-2,1.86,10.12,10.12,0,0,0,.3,4.26,21.06,21.06,0,0,0,1.26,4.5c.66,1.62,1.2,2.82,1.5,3.6.6,1.62,2.76,6.24,6.6,13.8L154,42.89a5.84,5.84,0,0,0-.66-1.74c-.9-2.1-2.46-5.22-4.68-9.54C144.36,23.63,140.58,17.94,137.22,14.64Z" fill="#edbf75"/><path d="M131.52,11.52a2.12,2.12,0,0,0-2,1.86,10.12,10.12,0,0,0,.3,4.26,21.06,21.06,0,0,0,1.26,4.5c.66,1.62,1.2,2.82,1.5,3.6.6,1.62,2.76,6.24,6.6,13.8L154,42.89a5.84,5.84,0,0,0-.66-1.74c-.9-2.1-2.46-5.22-4.68-9.54-4.26-8-8-13.68-11.4-17-2.28-2.28-4.2-3.3-5.7-3.12" fill="none" stroke="#ebc177" stroke-linecap="round" stroke-linejoin="round" stroke-width="4.85"/><path d="M101.95,35.81l-22.2,12.6a154.92,154.92,0,0,1-8.4-13.26c-1.08-2-4.32-6.3-9.72-13-5.1-6.3-8.1-10.5-9-12.54C51.49,7,52,5.52,54.37,5.22c1.92-.18,4.5.42,7.86,1.74a231.71,231.71,0,0,1,21.18,10.8c4.74,2.7,8.94,5.1,12.72,7.38l5.82,10.68" fill="none" stroke="#ebc177" stroke-linecap="round" stroke-linejoin="round" stroke-width="4.85"/><path d="M177.9,55.91h0a28.14,28.14,0,0,0-2.76-2.16c-3.36-2.52-10.44-6.12-21.18-10.86a50.33,50.33,0,0,1,8.28,5.28c1.26,1.2,3.42,3.12,6.6,5.76s4.68,4.62,4.62,5.7Z"/><path d="M177.9,55.91a28.14,28.14,0,0,0-2.76-2.16c-3.36-2.52-10.44-6.12-21.18-10.86a50.33,50.33,0,0,1,8.28,5.28c1.26,1.2,3.42,3.12,6.6,5.76s4.68,4.62,4.62,5.7l4.44-3.72" fill="none" stroke="#000" stroke-linecap="round" stroke-linejoin="round" stroke-width="2.9"/><path d="M2.66,100.79A14.86,14.86,0,0,0,6,107.63a119.6,119.6,0,0,0,8.28,8.76c3.6,3.54,4.92,6.24,3.84,8s-2.76,1.92-5.22.36-4-4.14-4.92-7.68l1,6.42a82.79,82.79,0,0,0,2.82,11.1,35.59,35.59,0,0,0,7.44,13.14,30.39,30.39,0,0,0,11.1,8.58,54.39,54.39,0,0,0,10.14,3.42c2.82.6,5.22,1.26,7.2,1.86s2.52-.72,1.92-3.9-1.32-8-2.1-14a23.39,23.39,0,0,0-7.68-15.12l-5.28-3.66c.66.6,1.8,2.7,3.36,6.18s1.74,5.7.66,6.54-3-1.26-5.76-6.42-4.32-8.82-4.56-11a8.52,8.52,0,0,0-2.1-5.1c-1.8-1.8-5.34-3.66-10.5-5.58a20.48,20.48,0,0,1-10.74-8.22,13.22,13.22,0,0,1-2-5Q2.12,97.37,2.66,100.79Z" fill="#db783d"/><path d="M88,2.76c.12-.42-.24-.42-1.08-.12a55.55,55.55,0,0,0-6.72,4A52.43,52.43,0,0,0,68.89,16.86a58.25,58.25,0,0,0-8.22,11.76c-1.62,3.36-2.22,6.24-1.92,8.76a17.29,17.29,0,0,0,1.8,6.3,8.92,8.92,0,0,0,4.56,3.9c2,.9,3.72,1.5,4.92,1.92l-.18,1.38a4.69,4.69,0,0,1-2.4,2.88,8.85,8.85,0,0,1-4.8,1.38,7.36,7.36,0,0,1-5.28-2.4A10.73,10.73,0,0,1,54.25,46c-.3-2.88-.6-5.34-1-7.26-4,6.36-6.54,10.86-7.62,13.5a29.71,29.71,0,0,0-1.8,7.86A13.22,13.22,0,0,0,46,68.87q2.52,3.78,6.48,3.42a10.68,10.68,0,0,0,6.3-2.52c1.62-1.5,2.52-2.16,2.64-2.1s.06.54-.24,1.44-.84,2.1-1.5,3.6A7.56,7.56,0,0,1,57,76.07c-1.2.84-3.42,1.14-6.6.84a9,9,0,0,1-6.9-3.36A33.1,33.1,0,0,1,45,78.47c.18,1.26.36,2.4.54,3.54s.36,2.28.48,3.6.18,3.3.18,5.82-.06,5.64-.18,9.42a18.74,18.74,0,0,0,1.2,7.5,16.67,16.67,0,0,0,2.58,4.2c1,1.08,2.64,1.68,4.92,1.86a8.35,8.35,0,0,0,6.12-2,40.11,40.11,0,0,1,4.56-3.54,8.36,8.36,0,0,1,3-1.26,1.85,1.85,0,0,1,1.74,1c.36.72-.06,2-1.44,3.84s-4.2,3.36-8.4,4.68a13.74,13.74,0,0,1,5.1,3.78c-3.18,2.22-7.86,4.44-14.1,6.72,5,3.78,8.28,7.56,9.78,11.16-.78,1-2.64,1.32-5.52.84s-4.32-.54-4.26-.12a38.35,38.35,0,0,0,3.12,5.1,34.49,34.49,0,0,1,4.38,8.64l10.14-8.64c2.22-3.6,4.44-7.32,6.66-11,4.44-7.44,6.66-11.34,6.66-11.88a21.74,21.74,0,0,0-.9-4.86c-.66-2.64-1.08-4-1.32-3.9s-.84-18.24-1.56-54.77c5.4-4,10.68-8,16-12,10.74-8.1,16.2-12.36,16.5-12.84s.06-1.62-.66-3.42a10.67,10.67,0,0,0-4-4.44,59.62,59.62,0,0,0-6.12-3.36c-2.1-1.08-4.74-2.46-7.86-4.32a8.85,8.85,0,0,1-4.8-7.5A27.71,27.71,0,0,1,88,2.76Z" fill="#db783d"/><path d="M95.95,5A12.66,12.66,0,0,0,95,3a29.51,29.51,0,0,0-1,3.24c-.66,2.4-.72,4.32-.18,5.7a7.17,7.17,0,0,0,2.4,3.3,12.16,12.16,0,0,0,3.78,1.2c1,.18,2.7.6,4.86,1.2a12.36,12.36,0,0,1,5.82,3.24,15.73,15.73,0,0,1,3.54,6.06c.78,2.4,1,4.32.6,5.7s.24,2.52,1.8,3.78a37.3,37.3,0,0,1,4.2,3.6c11.1-2,16.68-3.6,16.56-4.68a65.46,65.46,0,0,0-1.62-8.28c-1.08-4.44-2.64-7.14-4.74-8.1a24.72,24.72,0,0,0-7.14-2.16q-3.87-.63-9.72-2.16a84.72,84.72,0,0,1-9.54-2.82,15.56,15.56,0,0,1-5.94-3.48A12.18,12.18,0,0,1,95.95,5Z" fill="#db783d"/><path d="M86.95,2.64a55.55,55.55,0,0,0-6.72,4A52.43,52.43,0,0,0,68.89,16.86a58.25,58.25,0,0,0-8.22,11.76c-1.62,3.36-2.22,6.24-1.92,8.76a17.29,17.29,0,0,0,1.8,6.3,8.92,8.92,0,0,0,4.56,3.9c2,.9,3.72,1.5,4.92,1.92l-.18,1.38a4.69,4.69,0,0,1-2.4,2.88,8.85,8.85,0,0,1-4.8,1.38,7.36,7.36,0,0,1-5.28-2.4A10.73,10.73,0,0,1,54.25,46c-.3-2.88-.6-5.34-1-7.26-4,6.36-6.54,10.86-7.62,13.5a29.71,29.71,0,0,0-1.8,7.86A13.22,13.22,0,0,0,46,68.87q2.52,3.78,6.48,3.42a10.68,10.68,0,0,0,6.3-2.52c1.62-1.5,2.52-2.16,2.64-2.1s.06.54-.24,1.44-.84,2.1-1.5,3.6A7.56,7.56,0,0,1,57,76.07c-1.2.84-3.42,1.14-6.6.84a9,9,0,0,1-6.9-3.36A33.1,33.1,0,0,1,45,78.47c.18,1.26.36,2.4.54,3.54s.36,2.28.48,3.6.18,3.3.18,5.82-.06,5.64-.18,9.42a18.74,18.74,0,0,0,1.2,7.5,16.67,16.67,0,0,0,2.58,4.2c1,1.08,2.64,1.68,4.92,1.86a8.35,8.35,0,0,0,6.12-2,40.11,40.11,0,0,1,4.56-3.54,8.36,8.36,0,0,1,3-1.26,1.85,1.85,0,0,1,1.74,1c.36.72-.06,2-1.44,3.84s-4.2,3.36-8.4,4.68a13.74,13.74,0,0,1,5.1,3.78c-3.18,2.22-7.86,4.44-14.1,6.72,5,3.78,8.28,7.56,9.78,11.16-.78,1-2.64,1.32-5.52.84s-4.32-.54-4.26-.12a38.35,38.35,0,0,0,3.12,5.1,34.49,34.49,0,0,1,4.38,8.64l10.14-8.64c2.22-3.6,4.44-7.32,6.66-11,4.44-7.44,6.66-11.34,6.66-11.88a21.74,21.74,0,0,0-.9-4.86c-.66-2.64-1.08-4-1.32-3.9s-.84-18.24-1.56-54.77c5.4-4,10.68-8,16-12,10.74-8.1,16.2-12.36,16.5-12.84s.06-1.62-.66-3.42a10.67,10.67,0,0,0-4-4.44,59.62,59.62,0,0,0-6.12-3.36c-2.1-1.08-4.74-2.46-7.86-4.32a8.85,8.85,0,0,1-4.8-7.5A27.71,27.71,0,0,1,88,2.76c.12-.42-.24-.42-1.08-.12" fill="none" stroke="#db783d" stroke-linecap="round" stroke-linejoin="round" stroke-width="4.85"/><path d="M6,107.63a119.6,119.6,0,0,0,8.28,8.76c3.6,3.54,4.92,6.24,3.84,8s-2.76,1.92-5.22.36-4-4.14-4.92-7.68l1,6.42a82.79,82.79,0,0,0,2.82,11.1,35.59,35.59,0,0,0,7.44,13.14,30.39,30.39,0,0,0,11.1,8.58,54.39,54.39,0,0,0,10.14,3.42c2.82.6,5.22,1.26,7.2,1.86s2.52-.72,1.92-3.9-1.32-8-2.1-14a23.39,23.39,0,0,0-7.68-15.12l-5.28-3.66c.66.6,1.8,2.7,3.36,6.18s1.74,5.7.66,6.54-3-1.26-5.76-6.42-4.32-8.82-4.56-11a8.52,8.52,0,0,0-2.1-5.1c-1.8-1.8-5.34-3.66-10.5-5.58a20.48,20.48,0,0,1-10.74-8.22,13.22,13.22,0,0,1-2-5q-.72,1.08-.18,4.5A14.86,14.86,0,0,0,6,107.63" fill="none" stroke="#db783d" stroke-linecap="round" stroke-linejoin="round" stroke-width="4.85"/><path d="M95.95,5a12.18,12.18,0,0,0,2.76,3.36,15.56,15.56,0,0,0,5.94,3.48,84.72,84.72,0,0,0,9.54,2.82q5.85,1.53,9.72,2.16A24.72,24.72,0,0,1,131,19c2.1,1,3.66,3.66,4.74,8.1a65.46,65.46,0,0,1,1.62,8.28c.12,1.08-5.46,2.7-16.56,4.68a37.3,37.3,0,0,0-4.2-3.6c-1.56-1.26-2.16-2.46-1.8-3.78s.18-3.3-.6-5.7a15.73,15.73,0,0,0-3.54-6.06,12.36,12.36,0,0,0-5.82-3.24c-2.16-.6-3.84-1-4.86-1.2a12.16,12.16,0,0,1-3.78-1.2,7.17,7.17,0,0,1-2.4-3.3c-.54-1.38-.48-3.3.18-5.7A29.51,29.51,0,0,1,95,3a12.66,12.66,0,0,1,.9,2" fill="none" stroke="#db783d" stroke-linecap="round" stroke-linejoin="round" stroke-width="4.85"/><path d="M50.53,153.77s-1.24-10.47-2.21-14.57a24.41,24.41,0,0,0-4.87-9.33A16.7,16.7,0,0,0,39.13,126c-1.86-1.24-1.56-1.22-2.36-1.69s-1.69-1.51-2.69-1.19c-.84.27-1.65,1.75-1.15,2.49s1,1.28,1.25,1.81.41,1,.65,1.3a24.91,24.91,0,0,1,2.62,6.57l-2.19-3.15s-1.47-2.53-2.55-4.71a40.56,40.56,0,0,1-2.65-6.38c-.59-2,.32-.85-.94-4.48-.65-1.85-3-4.21-6.39-6-3.12-1.64-7.75-3.14-10-4.38a16.93,16.93,0,0,1-5.65-4.89,14.35,14.35,0,0,1-2.24-3.89,14.21,14.21,0,0,0-.41-2c-.24-.41-1.77-1.77-2.83-.47s-1.24,4.59-.47,7.07,1.89,4.77,5.18,8.48c3.56,4,7.23,7.44,7.88,8.2s3.08,4,2.55,4.63-.53,1.12-1.94.41A8.48,8.48,0,0,1,11,120.09,16.85,16.85,0,0,1,9.75,117c-.29-1-1.06-2.3-2.24-1.59s-1.47,1-1,2.91,1.31,12.74,4.92,20.3a43.38,43.38,0,0,0,10,14A30.8,30.8,0,0,0,30,158c3.12,1.41,5.71,2.47,5.71,2.47Z" fill="url(#linear-gradient)"/><path d="M139,34.7s-1.06-7.54-2.24-10.72a13.12,13.12,0,0,0-2.59-4.71,10.26,10.26,0,0,0-3.89-2.53c-2.24-.79-7.83-2-8.54-2.12s-6.36-1.5-7.07-1.65-7.71-2.12-8.27-2.33a31.09,31.09,0,0,1-4.71-2.09c-.85-.65-1.24-.91-1.56-1.18S98.85,6,98.4,5.55a4.92,4.92,0,0,1-1.06-1.77c-.35-.91-.91-2.09-1.44-2.3a2.25,2.25,0,0,0-1.71,0,3,3,0,0,0-1.06,1.8c-.32,1.21-1.53,4.89-1.36,6.65a8.88,8.88,0,0,0,.68,3.18,11.81,11.81,0,0,0,2.68,3.42,9.27,9.27,0,0,0,2.68,1.15c.8.15,2.36.44,3.68.8s2.5.59,3.74,1a12.94,12.94,0,0,1,4.5,2.8A15,15,0,0,1,112.45,27a14,14,0,0,0,.79,2.41l-1.55-.24s.2-.06-.27-.79a13.42,13.42,0,0,0-3.5-3.92c-1.62-1-4.71-2.8-5.71-3.33S98.14,19.09,97,18.48a38,38,0,0,1-5.2-3.18,6.9,6.9,0,0,1-2.51-5.09c-.24-2.91,0-.91,0-.91a33.42,33.42,0,0,1,.06-4.1c.18-1,.44-2,.44-2.43a1.81,1.81,0,0,0-.61-1.62c-.6-.41-1.6-.91-4,.5s-8.27,4.86-11.63,8-10.57,11.6-12,14S56.65,31.55,57,36.41s1.74,8.42,3.68,10.22a13.14,13.14,0,0,0,4.53,2.94c.88.26,3,1,3,1a5.51,5.51,0,0,1-1.5,1.62,7.79,7.79,0,0,1-4.09,1.24,6.45,6.45,0,0,1-3.21-1.24,8.33,8.33,0,0,1-3-4.27c-.44-2.09-.88-5.71-1-6.54s-.35-2.71-.5-3.24A1.71,1.71,0,0,0,53.5,37a1.68,1.68,0,0,0-1.74.85c-.44.77-4.71,7.66-5.07,8.45S43.61,52.07,43,54.87s-1.5,7-.44,10.33.71,2.3,1.41,3.62,2.77,4,4.77,4.65a9.06,9.06,0,0,0,5.27.29,23,23,0,0,0,3.8-1.3S56.74,75,54.56,75.16a21.41,21.41,0,0,1-5,0,9.9,9.9,0,0,1-3.68-1.5,18.4,18.4,0,0,0-1.38-1.47c-.35-.27-1.3-.62-1.83-.18s-1.12,1-.94,1.62a32.64,32.64,0,0,1,2,8,138.22,138.22,0,0,1,.65,16.72c-.06,4.21-.15,8.07,1.5,11.16s2.33,3.92,3.06,4.51a8,8,0,0,0,3.3,1.68,11.93,11.93,0,0,0,5.3.15,12.83,12.83,0,0,0,5-2.74,25.54,25.54,0,0,1,3.86-3c.74-.35,2-.88,2-.88a6.28,6.28,0,0,1-2.36,3.3,19.78,19.78,0,0,1-4.56,2.27c-1.41.5-2.71.85-2.89,1.68s-.15,1.65,1.38,2.38a14,14,0,0,1,2.65,1.68s-3,1.68-3.65,2-6.12,2.56-6.62,2.77-2,.59-2.33,1a1.84,1.84,0,0,0-.44,1.77c.29.71,2.59,2.36,3.3,3a51.42,51.42,0,0,1,3.95,4c.71.94,1.94,2.86,1.94,2.86a17.93,17.93,0,0,1-3.42-.21,15.18,15.18,0,0,0-4-.32c-.53.15-1.59.53-1.74,1.38s-.29,1.12,1.56,4,3.47,5.48,3.47,5.48a18.1,18.1,0,0,0,1.8,2.44C56.53,150.57,139,34.7,139,34.7Z" fill="url(#linear-gradient-2)"/><path d="M120.72,34.19c-.66-.06-1.32-.06-2-.06-11.28,0-19.62,1.68-25.08,5A71.45,71.45,0,0,0,80,49.43a42.88,42.88,0,0,0-8.28,11,45.94,45.94,0,0,0-4,11.34A43.64,43.64,0,0,0,66.85,83a58.78,58.78,0,0,0,1.5,10.26A81.63,81.63,0,0,0,72.55,105a96.67,96.67,0,0,0,5.82,10.5,49.25,49.25,0,0,0-7.08,7.38c-2.34,3-4.14,5.58-5.58,7.74s-2.94,4.92-4.68,8.1c-1.74,3.36-3.42,6.78-4.86,10.32-1,2.22-1.8,4.26-2.4,6.12-3,.78-5.82,0-8.52-2.16s-6-6-9.6-11.4c-3.12,9.42-1.26,18.48,5.52,27.06s13.5,13.26,20.4,13.92H140c-.3-3.9-2.34-6.12-6.3-6.78a14.07,14.07,0,0,0,6.48-9.54,21.14,21.14,0,0,0-.6-11.34,14.69,14.69,0,0,0-7-8.1l-.6-15.24v-28.5q7.92,2.07,17.1,3.6a75.94,75.94,0,0,0,11.88.78,21.27,21.27,0,0,1,7.8.9,20.51,20.51,0,0,0,7.92.66,14.12,14.12,0,0,0,7.14-2.7,13.76,13.76,0,0,0,4.44-6.12A23.17,23.17,0,0,0,189,90.11a41.91,41.91,0,0,0-4.62-13.8,97.09,97.09,0,0,0-8.88-14.16A64.63,64.63,0,0,0,163,49.67c-.78-.66-1.68-1.26-2.52-1.92A78,78,0,0,0,152,42.41c-2-1.2-4.2-2.28-6.42-3.42-5.64-2.76-13-4.32-22.08-4.74C122.64,34.25,121.68,34.19,120.72,34.19ZM97.39,137c2.4-.72,4.2-4.32,5.52-11l19.5,1.2.9,18.78-8.4,14.82c0,1.74,2.52,1.8,7.44.18-2.28.78-3.36,3.36-3.24,7.68.24,5.34-1.56,8.1-5.58,8.22H90.19a47.57,47.57,0,0,0,5.88-8,7.58,7.58,0,0,0,1-4.38A28.53,28.53,0,0,0,91.09,149c6.12,7.5,10.5,11.34,13.14,11.58C107.71,160.12,105.49,152.2,97.39,137Z" fill="#393939"/><path d="M131.94,131.62a61.13,61.13,0,0,0,17.16,4.74c6.36.72,11,.36,13.92-1.2a6,6,0,0,0,3.54-7c-.54-3.12-1-5.76-1.14-8a13.44,13.44,0,0,1,3.36-10.56" fill="#862528" stroke="#862528" stroke-linecap="round" stroke-linejoin="round" stroke-width="4.85"/><path d="M131.94,131.62l.6,15.24a14.69,14.69,0,0,1,7,8.1,21.14,21.14,0,0,1,.6,11.34,14.07,14.07,0,0,1-6.48,9.54c4,.66,6,2.88,6.3,6.78H61.57c-6.9-.66-13.68-5.28-20.4-13.92s-8.64-17.64-5.52-27.06c3.6,5.4,6.84,9.24,9.6,11.4s5.52,2.94,8.52,2.16c.6-1.86,1.44-3.9,2.4-6.12,1.44-3.54,3.12-7,4.86-10.32q2.61-4.77,4.68-8.1c1.44-2.16,3.24-4.74,5.58-7.74a49.25,49.25,0,0,1,7.08-7.38A96.67,96.67,0,0,1,72.55,105a81.63,81.63,0,0,1-4.2-11.82A58.78,58.78,0,0,1,66.85,83a43.64,43.64,0,0,1,.9-11.16,45.94,45.94,0,0,1,4-11.34,42.88,42.88,0,0,1,8.28-11A71.45,71.45,0,0,1,93.67,39.11c5.46-3.3,13.8-5,25.08-5,.66,0,1.32,0,2,.06,1,0,1.92.06,2.82.06,9.06.42,16.44,2,22.08,4.74,2.22,1.14,4.38,2.22,6.42,3.42a78,78,0,0,1,8.46,5.34c.84.66,1.74,1.26,2.52,1.92A64.63,64.63,0,0,1,175.5,62.15a97.09,97.09,0,0,1,8.88,14.16A41.91,41.91,0,0,1,189,90.11a23.17,23.17,0,0,1-.78,10.14,13.76,13.76,0,0,1-4.44,6.12,14.12,14.12,0,0,1-7.14,2.7,20.51,20.51,0,0,1-7.92-.66,21.27,21.27,0,0,0-7.8-.9,75.94,75.94,0,0,1-11.88-.78q-9.18-1.53-17.1-3.6v28.5" fill="#862528" stroke="#862528" stroke-linecap="round" stroke-linejoin="round" stroke-width="4.85"/><path d="M102.91,126c-1.32,6.66-3.12,10.26-5.52,11,8.1,15.18,10.32,23.1,6.84,23.58-2.64-.24-7-4.08-13.14-11.58A28.53,28.53,0,0,1,97,164.5a7.58,7.58,0,0,1-1,4.38c-1.38,2.52-3.42,5.82-5.88,9.9,10.62.72,18,.12,22-1.86,5-2.28,7.26-5,7-8.22-.12-4.32,1-6.9,3.24-7.68-4.92,1.62-7.44,1.56-7.44-.18l6.84-14.7c2.76-5.64,3-11.94.66-18.9Z" fill="#fbe4bd"/><path d="M102.91,126l19.5,1.2c2.34,7,2.1,13.26-.66,18.9l-6.84,14.7c0,1.74,2.52,1.8,7.44.18-2.28.78-3.36,3.36-3.24,7.68.3,3.24-2,5.94-7,8.22-4,2-11.34,2.58-22,1.86,2.46-4.08,4.5-7.38,5.88-9.9a7.58,7.58,0,0,0,1-4.38A28.53,28.53,0,0,0,91.09,149c6.12,7.5,10.5,11.34,13.14,11.58,3.48-.48,1.26-8.4-6.84-23.58,2.4-.72,4.2-4.32,5.52-11" fill="none" stroke="#862528" stroke-linecap="round" stroke-linejoin="round" stroke-width="4.85"/><path d="M163.68,114.41l2.94-6.54a1.56,1.56,0,0,0-.48-1.2l-7,15.54,2.1-5.1" fill="#e78e79" stroke="#862528" stroke-linecap="round" stroke-linejoin="round" stroke-width="7.8"/><polyline points="162.18 131.32 162.18 123.7 163.5 129.22" fill="#e78e79" stroke="#862528" stroke-linecap="round" stroke-linejoin="round" stroke-width="7.8"/><polyline points="159.12 125.08 157.38 130.12 159.3 125.56" fill="#e78e79" stroke="#862528" stroke-linecap="round" stroke-linejoin="round" stroke-width="7.8"/><line x1="159.12" y1="125.08" x2="159.72" y2="123.41" fill="#e78e79" stroke="#862528" stroke-linecap="round" stroke-linejoin="round" stroke-width="7.8"/><polyline points="163.5 129.22 162.18 115.61 163.68 127.31 163.68 114.41" fill="#e78e79" stroke="#862528" stroke-linecap="round" stroke-linejoin="round" stroke-width="7.8"/><path d="M159.3,125.56l1.5-3.66a2.72,2.72,0,0,0-1.08,1.5" fill="#e78e79" stroke="#862528" stroke-linecap="round" stroke-linejoin="round" stroke-width="7.8"/><path d="M159.72,123.41a17.07,17.07,0,0,0-.42,2.16" fill="#e78e79" stroke="#862528" stroke-linecap="round" stroke-linejoin="round" stroke-width="7.8"/><line x1="163.68" y1="112.61" x2="163.68" y2="114.41" fill="#e78e79" stroke="#862528" stroke-linecap="round" stroke-linejoin="round" stroke-width="7.8"/><polyline points="157.92 134.08 152.4 133.9 154.74 133.36" fill="#e78e79" stroke="#862528" stroke-linecap="round" stroke-linejoin="round" stroke-width="7.8"/><line x1="154.74" y1="133.36" x2="152.34" y2="132.76" fill="#e78e79" stroke="#862528" stroke-linecap="round" stroke-linejoin="round" stroke-width="7.8"/><line x1="152.34" y1="132.76" x2="154.5" y2="132.76" fill="#e78e79" stroke="#862528" stroke-linecap="round" stroke-linejoin="round" stroke-width="7.8"/><path d="M163.5,129.23l.12,2.94a4.5,4.5,0,0,0-.12-2.94" fill="#e78e79" stroke="#862528" stroke-linecap="round" stroke-linejoin="round" stroke-width="7.8"/><path d="M162.18,131.32c-.36.3-.66.6-.9.78l-.9,1.2-1.2.9" fill="#e78e79" stroke="#862528" stroke-linecap="round" stroke-linejoin="round" stroke-width="7.8"/><line x1="154.74" y1="133.36" x2="156.6" y2="132.94" fill="#e78e79" stroke="#862528" stroke-linecap="round" stroke-linejoin="round" stroke-width="7.8"/><path d="M156.6,132.94a8,8,0,0,1-2.1-.18" fill="#e78e79" stroke="#862528" stroke-linecap="round" stroke-linejoin="round" stroke-width="7.8"/><line x1="159.18" y1="134.2" x2="157.92" y2="134.08" fill="#e78e79" stroke="#862528" stroke-linecap="round" stroke-linejoin="round" stroke-width="7.8"/><polyline points="159.18 134.2 158.1 134.2 157.92 134.08" fill="#e78e79" stroke="#862528" stroke-linecap="round" stroke-linejoin="round" stroke-width="7.8"/><path d="M157.32,132.76h1a16.81,16.81,0,0,1-1.74.18" fill="#e78e79" stroke="#862528" stroke-linecap="round" stroke-linejoin="round" stroke-width="7.8"/><polyline points="157.32 132.76 159.18 132.41 159.18 134.2" fill="#e78e79" stroke="#862528" stroke-linecap="round" stroke-linejoin="round" stroke-width="7.8"/><line x1="154.5" y1="132.76" x2="157.32" y2="132.76" fill="#e78e79" stroke="#862528" stroke-linecap="round" stroke-linejoin="round" stroke-width="7.8"/><line x1="157.92" y1="134.08" x2="154.74" y2="133.36" fill="#e78e79" stroke="#862528" stroke-linecap="round" stroke-linejoin="round" stroke-width="7.8"/><line x1="156.6" y1="132.94" x2="157.32" y2="132.76" fill="#e78e79" stroke="#862528" stroke-linecap="round" stroke-linejoin="round" stroke-width="7.8"/><path d="M149.7,130.12h1.5c.12.06.24.36.48.9h5.22l2.22-5.94" fill="#e78e79" stroke="#862528" stroke-linecap="round" stroke-linejoin="round" stroke-width="7.8"/><polyline points="150.78 132.41 148.68 131.92 150.78 131.92 150.78 132.41" fill="#e78e79" stroke="#862528" stroke-linecap="round" stroke-linejoin="round" stroke-width="7.8"/><line x1="149.7" y1="130.12" x2="148.8" y2="130.12" fill="#e78e79" stroke="#862528" stroke-linecap="round" stroke-linejoin="round" stroke-width="7.8"/><polyline points="150.78 132.41 150.78 132.76 152.34 132.76" fill="#e78e79" stroke="#862528" stroke-linecap="round" stroke-linejoin="round" stroke-width="7.8"/><line x1="152.34" y1="132.76" x2="150.78" y2="132.41" fill="#e78e79" stroke="#862528" stroke-linecap="round" stroke-linejoin="round" stroke-width="7.8"/><path d="M154.5,132.76a8,8,0,0,1-4.8-2.64" fill="#e78e79" stroke="#862528" stroke-linecap="round" stroke-linejoin="round" stroke-width="7.8"/><path d="M159.3,125.56c-.3,2.76.6,4.62,2.88,5.76" fill="#e78e79" stroke="#862528" stroke-linecap="round" stroke-linejoin="round" stroke-width="7.8"/><polyline points="133.68 112.13 131.94 112.13 133.8 102.65 133.8 113.03 137.4 103.37 135.54 119.2" fill="#e78e79" stroke="#862528" stroke-linecap="round" stroke-linejoin="round" stroke-width="21.4"/><path d="M146.88,126.52l1,2.28a6.35,6.35,0,0,1-3-.54,3.55,3.55,0,0,0-1.86-.36c-4.14.3-7.44-.9-10-3.78l2.46-4.92" fill="#e78e79" stroke="#862528" stroke-linecap="round" stroke-linejoin="round" stroke-width="21.4"/><line x1="135.54" y1="119.21" x2="136.62" y2="117.05" fill="#e78e79" stroke="#862528" stroke-linecap="round" stroke-linejoin="round" stroke-width="21.4"/><polyline points="135.54 119.2 135.48 119.33 136.62 117.05" fill="#e78e79" stroke="#862528" stroke-linecap="round" stroke-linejoin="round" stroke-width="21.4"/><path d="M173.52,95.51a5,5,0,0,0-.06,2.82,2,2,0,0,0,1.44,1.5,1.8,1.8,0,0,0,1.86-.66,4.54,4.54,0,0,0,1.44-2.4,5.59,5.59,0,0,0,0-2.82,2.06,2.06,0,0,0-1.38-1.5,2,2,0,0,0-1.92.66A5,5,0,0,0,173.52,95.51Z" fill="#e78e79"/><path d="M160.32,96.35a5.63,5.63,0,0,0,.78-2.94,5.79,5.79,0,0,0-.78-2.94,2,2,0,0,0-1.62-1.2,2.12,2.12,0,0,0-1.74,1.2,6.43,6.43,0,0,0-.66,2.94,6.24,6.24,0,0,0,.66,2.94,2.2,2.2,0,0,0,1.74,1.26A2,2,0,0,0,160.32,96.35Z" fill="#e78e79"/><path d="M165.51,108.84c-3.78.18-6.6-.12-8.4-.9l5.7,11.7Q162.45,112.62,165.51,108.84Z"/><path d="M161.73,115.5a25.05,25.05,0,0,0-4.62-7.56C150,106.8,142,105.18,133,103a28.46,28.46,0,0,0,1.74,8,32.23,32.23,0,0,0,5.46,10.32,26.8,26.8,0,0,0,8.1,7.2,17.15,17.15,0,0,0,8.94,2.4c3-.12,4.8-1.92,5.46-5.4A17.77,17.77,0,0,0,161.73,115.5Z" fill="#e78e79"/><path d="M135.54,60.65A16.16,16.16,0,0,0,129.48,48a23.31,23.31,0,0,0-29.4,0A16,16,0,0,0,94,60.65a16.15,16.15,0,0,0,6.06,12.66,23.31,23.31,0,0,0,29.4,0C133.5,69.77,135.54,65.57,135.54,60.65Z" fill="#f8fcff"/><path d="M111.67,69.83a14,14,0,0,0,19.86,0A13.23,13.23,0,0,0,135.6,60a14,14,0,1,0-28,0A13.23,13.23,0,0,0,111.67,69.83Z"/><path d="M106.75,29.33c-5.1-1.38-8.52-2.34-10.32-2.7L93.25,42.77h8.82c6.78.48,12.18,1.2,16.08,2.34A30,30,0,0,1,128,49.73,43.54,43.54,0,0,1,133.92,55v2.4l8.7-8.4c.18-.36-1.68-2.16-5.58-5.34a67.67,67.67,0,0,0-10.32-7.14,60.76,60.76,0,0,0-8.34-3.72C115.74,31.85,111.85,30.71,106.75,29.33Z"/><path d="M106.75,29.33c5.1,1.38,9,2.52,11.64,3.48a60.76,60.76,0,0,1,8.34,3.72A67.67,67.67,0,0,1,137,43.67c3.9,3.18,5.76,5,5.58,5.34l-8.7,8.4V55A43.54,43.54,0,0,0,128,49.73a30,30,0,0,0-9.84-4.62c-3.9-1.14-9.3-1.86-16.08-2.34H93.25l3.18-16.14c1.8.36,5.22,1.32,10.32,2.7" fill="none" stroke="#000" stroke-linecap="round" stroke-linejoin="round" stroke-width="4.85"/><path d="M129.42,58.61a4.56,4.56,0,1,0-6.48,0,4.5,4.5,0,0,0,6.48,0Z" fill="#fff"/></g></g></svg>